<?xml version="1.0" encoding="UTF-8" standalone="no"?>
<!-- Created with Inkscape (http://www.inkscape.org/) -->

<svg
   xmlns:dc="http://purl.org/dc/elements/1.1/"
   xmlns:cc="http://creativecommons.org/ns#"
   xmlns:rdf="http://www.w3.org/1999/02/22-rdf-syntax-ns#"
   xmlns:svg="http://www.w3.org/2000/svg"
   xmlns="http://www.w3.org/2000/svg"
   xmlns:sodipodi="http://sodipodi.sourceforge.net/DTD/sodipodi-0.dtd"
   xmlns:inkscape="http://www.inkscape.org/namespaces/inkscape"
   width="30"
   height="30"
   viewBox="0 0 30 30"
   id="svg4173"
   version="1.1"
   inkscape:version="0.91 r13725"
   sodipodi:docname="offline.svg"
   inkscape:export-filename="/home/markel/Dokumentuak/FeedMonkey/img/icons/offline.png"
   inkscape:export-xdpi="90"
   inkscape:export-ydpi="90">
  <defs
     id="defs4175" />
  <sodipodi:namedview
     id="base"
     pagecolor="#ffffff"
     bordercolor="#666666"
     borderopacity="1.0"
     inkscape:pageopacity="0.0"
     inkscape:pageshadow="2"
     inkscape:zoom="15.839192"
     inkscape:cx="14.592352"
     inkscape:cy="13.073584"
     inkscape:document-units="px"
     inkscape:current-layer="layer1"
     showgrid="false"
     units="px"
     inkscape:window-width="1440"
     inkscape:window-height="876"
     inkscape:window-x="0"
     inkscape:window-y="24"
     inkscape:window-maximized="1" />
  <metadata
     id="metadata4178">
    <rdf:RDF>
      <cc:Work
         rdf:about="">
        <dc:format>image/svg+xml</dc:format>
        <dc:type
           rdf:resource="http://purl.org/dc/dcmitype/StillImage" />
        <dc:title></dc:title>
      </cc:Work>
    </rdf:RDF>
  </metadata>
  <g
     inkscape:label="Capa 1"
     inkscape:groupmode="layer"
     id="layer1"
     transform="translate(0,-1022.3622)">
    <g
       style="fill:#ffffff;fill-opacity:1"
       id="g4162"
       transform="translate(-0.04464287,-2.7166152e-8)">
      <path
         style="fill:#ffffff;fill-opacity:1;fill-rule:evenodd;stroke:none;stroke-width:1px;stroke-linecap:butt;stroke-linejoin:miter;stroke-opacity:1"
         d="M 15.599609,5.109375 C 12.571048,5.303175 10.38332,6.7573312 9.2753906,9.8320312 7.4088575,9.3917313 5.6734914,9.5735969 4.2324219,11.154297 c -1.1926463,1.2834 -1.1754044,2.938178 -1,4.642578 -2.95866346,1.446 -3.91680501,7.715113 1.8007812,8.445313 l 18.4121089,0 c 1.987717,-0.017 5.558328,-1.461038 5.683594,-6.523438 -0.26138,-5.7751 -3.819447,-6.753516 -7.125,-7.166016 C 21.652002,8.5378344 19.886468,5.480275 15.599609,5.109375 Z M 12.5,11.5 l 5,0 0,4.5 2.5,0 -5,5 -5,-5 2.5,0 z"
         transform="translate(0.04464287,1022.3622)"
         id="path3338"
         inkscape:connector-curvature="0"
         sodipodi:nodetypes="ccccccccccccccccc" />
    </g>
  </g>
</svg>
