<?xml version="1.0" encoding="UTF-8" standalone="no"?>
<!-- Created with Inkscape (http://www.inkscape.org/) -->

<svg
   xmlns:dc="http://purl.org/dc/elements/1.1/"
   xmlns:cc="http://creativecommons.org/ns#"
   xmlns:rdf="http://www.w3.org/1999/02/22-rdf-syntax-ns#"
   xmlns:svg="http://www.w3.org/2000/svg"
   xmlns="http://www.w3.org/2000/svg"
   xmlns:sodipodi="http://sodipodi.sourceforge.net/DTD/sodipodi-0.dtd"
   xmlns:inkscape="http://www.inkscape.org/namespaces/inkscape"
   width="30"
   height="30"
   viewBox="0 0 30 30"
   id="svg4173"
   version="1.1"
   inkscape:version="0.91 r13725"
   sodipodi:docname="online.svg">
  <defs
     id="defs4175" />
  <sodipodi:namedview
     id="base"
     pagecolor="#ffffff"
     bordercolor="#666666"
     borderopacity="1.0"
     inkscape:pageopacity="0.0"
     inkscape:pageshadow="2"
     inkscape:zoom="11.2"
     inkscape:cx="7.3455862"
     inkscape:cy="14.617347"
     inkscape:document-units="px"
     inkscape:current-layer="layer1"
     showgrid="false"
     units="px"
     inkscape:window-width="1440"
     inkscape:window-height="876"
     inkscape:window-x="0"
     inkscape:window-y="24"
     inkscape:window-maximized="1" />
  <metadata
     id="metadata4178">
    <rdf:RDF>
      <cc:Work
         rdf:about="">
        <dc:format>image/svg+xml</dc:format>
        <dc:type
           rdf:resource="http://purl.org/dc/dcmitype/StillImage" />
        <dc:title />
      </cc:Work>
    </rdf:RDF>
  </metadata>
  <g
     inkscape:label="Capa 1"
     inkscape:groupmode="layer"
     id="layer1"
     transform="translate(0,-1022.3622)">
    <path
       inkscape:connector-curvature="0"
       style="fill:#ffffff;fill-opacity:1;fill-rule:evenodd;stroke:none;stroke-width:1px;stroke-linecap:butt;stroke-linejoin:miter;stroke-opacity:1"
       d="m 15.644666,1027.4716 c -3.028561,0.1938 -5.216495,1.6486 -6.3244244,4.7233 -1.8665331,-0.4403 -3.6023036,-0.2599 -5.0433731,1.3208 -1.1926463,1.2834 -1.1760731,2.9388 -1.0006687,4.6432 -2.95866343,1.446 -3.91646053,7.7156 1.8011257,8.4458 l 18.4126475,0 c 1.987717,-0.017 5.558633,-1.4621 5.683899,-6.5245 -0.26138,-5.7751 -3.819328,-6.7524 -7.124881,-7.1649 -0.351904,-2.0149 -2.117466,-5.0728 -6.404325,-5.4437 z m 0.09893,4.9826 c 2.41781,-0.017 4.439424,1.358 5.624989,3.5433 l -2.60185,1.1607 c -1.235419,-1.3978 -2.624632,-2.4751 -5.123409,-1.2409 l 0.640397,1.2009 -4.4431284,-0.6806 1.6411944,-3.9626 0.760573,0.9206 c 1.221419,-0.638 2.402232,-0.9335 3.501234,-0.9414 z m -3.78122,7.7171 c 1.235419,1.3978 2.624765,2.475 5.123537,1.2409 l -0.640391,-1.2009 4.443,0.6804 -1.641066,3.9628 -0.760573,-0.9207 c -3.908541,2.0416 -7.401768,0.5767 -9.1262244,-2.6018 l 2.6017174,-1.1607 z"
       id="path3338" />
  </g>
</svg>
